<svg xmlns="http://www.w3.org/2000/svg" viewBox="0 0 128 128">
  <style>
    .bg-shape { fill: var(--logo-bg, #111827); }
    .letter { fill: var(--logo-text, #ffffff); }
    .accent { fill: #79be15; }
  </style>
  <!-- Rounded rect with bottom-left corner broken off -->
  <defs>
    <clipPath id="broken">
      <path d="
        M24 0 H104 Q128 0 128 24 V104 Q128 128 104 128
        H40 L0 88
        V24 Q0 0 24 0Z
      "/>
    </clipPath>
  </defs>
  <rect width="128" height="128" rx="24" class="bg-shape" clip-path="url(#broken)" />
  <!-- MENDELU green dot in the broken corner area -->
  <circle cx="18" cy="110" r="14" class="accent" />
  <!-- Letter R -->
  <path d="M42 88V40H68C78.5 40 86 47.5 86 58C86 64.5 82 71 75 74L88 88H74L63 76H54V88H42ZM54 66H68C72.5 66 74 64.5 74 58C74 51.5 72.5 50 68 50H54V66Z" class="letter" />
</svg>
